<svg width="16" height="18" viewBox="0 0 16 18" fill="none" xmlns="http://www.w3.org/2000/svg">
<path fill-rule="evenodd" clip-rule="evenodd" d="M6.34769 16.003C6.35202 16.1054 6.34098 16.2053 6.31942 16.3064C6.28154 16.4841 6.20839 16.6721 6.10484 16.8458C5.81049 17.3396 5.31045 17.6691 4.66667 17.6691C3.15008 17.6691 2.55486 16.9251 1.8096 15.0619C1.30486 13.8001 1.06675 13.5024 0.5 13.5024V11.8358C2.01658 11.8358 2.6118 12.5798 3.35706 14.4429C3.8618 15.7048 4.09992 16.0024 4.66667 16.0024C4.66667 15.7606 4.66335 15.5464 4.65639 15.2564C4.64005 14.5766 4.63817 14.4378 4.66783 14.256C4.67969 13.8593 4.78211 13.5778 4.9875 13.2984C3.12766 12.8935 1.87327 12.0574 1.15331 10.7012L0.883614 10.0669C0.620871 9.31184 0.5 8.45628 0.5 7.46819C0.5 6.33023 0.846955 5.31275 1.49502 4.46222C1.29286 3.65377 1.32054 2.66602 1.76692 1.5505L1.91278 1.186L2.28672 1.06638C2.33679 1.05037 2.39765 1.0359 2.46916 1.02468C3.1973 0.910399 4.23342 1.18307 5.58796 2.0507C6.38647 1.8656 7.22737 1.77214 8.07398 1.77214C8.83053 1.77214 9.58288 1.84842 10.3014 1.99878C11.6192 1.17351 12.6269 0.914666 13.3354 1.02483C13.4061 1.03582 13.4663 1.05 13.516 1.06575L13.8923 1.18507L14.0383 1.5518C14.4288 2.53242 14.4958 3.43614 14.3537 4.22691C15.0987 5.12084 15.5 6.21982 15.5 7.46819C15.5 8.52064 15.4246 9.31202 15.2079 10.0819L14.9791 10.7097C14.3802 12.0645 13.0596 12.91 11.0229 13.3127C11.2346 13.6058 11.3333 13.9033 11.3333 14.3358V15.1691C11.3333 15.5729 11.3333 15.5854 11.3324 16.0024C11.3343 16.0324 11.3368 16.0471 11.3395 16.0562L11.3333 17.6691C10.6235 17.6691 10.0957 17.3229 9.83615 16.7769C9.70156 16.4938 9.66135 16.2234 9.66667 15.9906V14.3358C9.66667 14.2659 9.66424 14.2619 9.49408 14.0917C9.03924 13.6369 8.83333 13.2937 8.83333 12.6691V11.9153L9.5834 11.8399C11.8161 11.6157 13.0304 10.9957 13.4331 10.0899L13.6212 9.5755C13.7709 9.03768 13.8333 8.38271 13.8333 7.46819C13.8333 6.49645 13.4941 5.69372 12.8525 5.05238L12.4998 4.69987L12.6438 4.22246C12.7716 3.79834 12.802 3.29649 12.6668 2.72408C12.6443 2.72978 12.6209 2.73598 12.5967 2.74274C12.1505 2.86696 11.5934 3.13351 10.922 3.58224L10.6158 3.78691L10.2584 3.69827C9.56699 3.52683 8.82404 3.43881 8.07398 3.43881C7.23989 3.43881 6.41539 3.54493 5.65372 3.75258L5.282 3.85392L4.96402 3.63638C4.26969 3.1614 3.69288 2.87892 3.23035 2.74697C3.19732 2.73755 3.16587 2.72912 3.13597 2.7216C2.9746 3.38409 3.03843 3.92838 3.20186 4.3368L3.39782 4.82651L3.03907 5.21318C2.46741 5.82933 2.16667 6.57914 2.16667 7.46819C2.16667 8.28216 2.26195 8.95663 2.43657 9.46469L2.65464 9.98088C3.19978 11.0038 4.35767 11.6192 6.42215 11.8405L7.16667 11.9203V12.6691C7.16667 13.2937 6.96076 13.6369 6.50592 14.0917C6.33576 14.2619 6.33333 14.2659 6.33333 14.3358L6.31897 14.4898C6.30946 14.5404 6.30946 14.6708 6.32257 15.2164C6.3286 15.4673 6.33204 15.6658 6.33303 15.8734C6.34299 15.9163 6.34449 15.944 6.34769 16.003Z" fill="#2F2E41" stroke="white" stroke-width="0.5"/>
</svg>
