<svg width="18" height="18" viewBox="0 0 18 18" fill="none" xmlns="http://www.w3.org/2000/svg">
<path d="M9.83332 6.83333C9.40187 6.83333 8.94603 6.96521 8.54345 7.21012L8.16666 6.83333H7.33332V12.6667H8.99999V9.33333C8.99999 8.85354 9.49495 8.5 9.83332 8.5H10.6667C11.005 8.5 11.5 8.85354 11.5 9.33333V12.6667H13.1667V9.33333C13.1667 7.78931 11.8283 6.83333 10.6667 6.83333H9.83332Z" fill="#2F2E41"/>
<path d="M5.66666 6C6.12689 6 6.49999 5.6269 6.49999 5.16667C6.49999 4.70643 6.12689 4.33333 5.66666 4.33333C5.20642 4.33333 4.83332 4.70643 4.83332 5.16667C4.83332 5.6269 5.20642 6 5.66666 6Z" fill="#2F2E41"/>
<path d="M4.83332 6.83333V12.6667H6.49999V6.83333H4.83332Z" fill="#2F2E41"/>
<path fill-rule="evenodd" clip-rule="evenodd" d="M2.33332 1H15.6667C16.5871 1 17.3333 1.74619 17.3333 2.66667V16C17.3333 16.9205 16.5871 17.6667 15.6667 17.6667H2.33332C1.41285 17.6667 0.666656 16.9205 0.666656 16V2.66667C0.666656 1.74619 1.41285 1 2.33332 1ZM2.33332 2.66667V16H15.6667V2.66667H2.33332Z" fill="#2F2E41"/>
<path d="M9.83332 6.83333C9.40187 6.83333 8.94603 6.96521 8.54345 7.21012L8.16666 6.83333H7.33332V12.6667H8.99999V9.33333C8.99999 8.85354 9.49495 8.5 9.83332 8.5H10.6667C11.005 8.5 11.5 8.85354 11.5 9.33333V12.6667H13.1667V9.33333C13.1667 7.78931 11.8283 6.83333 10.6667 6.83333H9.83332Z" stroke="white" stroke-width="0.5"/>
<path d="M5.66666 6C6.12689 6 6.49999 5.6269 6.49999 5.16667C6.49999 4.70643 6.12689 4.33333 5.66666 4.33333C5.20642 4.33333 4.83332 4.70643 4.83332 5.16667C4.83332 5.6269 5.20642 6 5.66666 6Z" stroke="white" stroke-width="0.5"/>
<path d="M4.83332 6.83333V12.6667H6.49999V6.83333H4.83332Z" stroke="white" stroke-width="0.5"/>
<path fill-rule="evenodd" clip-rule="evenodd" d="M2.33332 1H15.6667C16.5871 1 17.3333 1.74619 17.3333 2.66667V16C17.3333 16.9205 16.5871 17.6667 15.6667 17.6667H2.33332C1.41285 17.6667 0.666656 16.9205 0.666656 16V2.66667C0.666656 1.74619 1.41285 1 2.33332 1ZM2.33332 2.66667V16H15.6667V2.66667H2.33332Z" stroke="white" stroke-width="0.5"/>
</svg>
